<?xml version="1.0" standalone="no"?>
<!DOCTYPE svg PUBLIC "-//W3C//DTD SVG 20010904//EN"
 "http://www.w3.org/TR/2001/REC-SVG-20010904/DTD/svg10.dtd">
<svg version="1.0" xmlns="http://www.w3.org/2000/svg"
 width="155.000000pt" height="77.000000pt" viewBox="0 0 155.000000 77.000000"
 preserveAspectRatio="xMidYMid meet">

<g transform="translate(0.000000,77.000000) scale(0.100000,-0.100000)"
fill="#000000" stroke="none">
<path d="M50 703 c0 -34 31 -87 62 -107 15 -9 56 -16 118 -18 l95 -3 3 33 c2
17 6 32 10 32 12 -1 142 -100 142 -109 0 -14 -127 -111 -145 -111 -3 0 -5 13
-5 29 0 31 -14 41 -61 41 -25 0 -29 4 -29 26 0 34 -7 31 -126 -52 -52 -36 -94
-72 -92 -79 3 -14 193 -155 208 -155 6 0 10 9 10 20 0 17 7 20 40 20 38 0 40
2 40 30 0 21 5 30 16 30 20 0 144 -90 144 -104 0 -13 -124 -101 -142 -101 -7
0 -14 12 -16 28 -3 27 -4 27 -74 27 -80 0 -140 -15 -164 -41 -8 -9 -22 -38
-29 -63 l-14 -46 182 0 c100 0 199 5 220 11 55 15 114 72 128 122 16 60 7 151
-18 185 l-21 28 24 40 c28 46 33 140 9 197 -19 46 -76 92 -131 106 -23 6 -120
11 -213 11 l-171 0 0 -27z"/>
<path d="M1133 550 c-22 -9 -23 -14 -23 -141 l0 -131 76 4 c69 3 79 6 100 31
21 25 24 38 24 108 0 76 -2 82 -29 110 -25 24 -37 29 -78 28 -26 0 -58 -4 -70
-9z m120 -103 c10 -75 -5 -111 -51 -115 l-32 -3 0 91 0 91 37 -3 38 -3 8 -58z"/>
<path d="M760 520 c0 -20 -5 -30 -15 -30 -8 0 -15 -9 -15 -20 0 -11 7 -20 15
-20 12 0 15 -16 15 -85 l0 -85 28 0 28 0 -4 85 c-3 80 -2 85 17 85 14 0 21 6
21 20 0 13 -7 20 -20 20 -16 0 -19 5 -13 30 5 28 4 30 -26 30 -28 0 -31 -3
-31 -30z"/>
<path d="M922 483 c-22 -9 -42 -60 -42 -108 0 -59 32 -95 85 -95 51 0 73 15
86 59 14 48 5 105 -22 132 -18 18 -75 25 -107 12z m78 -98 c0 -32 -5 -47 -17
-53 -32 -17 -43 -3 -43 53 0 56 11 70 43 53 12 -6 17 -21 17 -53z"/>
<path d="M1376 465 c-22 -20 -26 -32 -26 -80 0 -46 4 -60 25 -80 49 -50 138
-20 151 51 8 45 -11 110 -36 124 -34 18 -85 12 -114 -15z m94 -80 c0 -32 -5
-47 -17 -53 -32 -17 -43 -3 -43 53 0 56 11 70 43 53 12 -6 17 -21 17 -53z"/>
</g>
</svg>
